<?xml version="1.0" standalone="no"?>
<!DOCTYPE svg PUBLIC "-//W3C//DTD SVG 20010904//EN"
 "http://www.w3.org/TR/2001/REC-SVG-20010904/DTD/svg10.dtd">
<svg version="1.0" xmlns="http://www.w3.org/2000/svg"
 width="975.000000pt" height="256.000000pt" viewBox="0 0 975.000000 256.000000"
 preserveAspectRatio="xMidYMid meet">

<g transform="translate(0.000000,256.000000) scale(0.100000,-0.100000)"
fill="#000000" stroke="none">
<path d="M5433 2444 c-54 -24 -64 -37 -39 -51 34 -21 36 -46 36 -557 0 -317 4
-506 10 -506 5 0 15 18 21 40 7 22 14 40 16 40 2 0 22 -14 45 -30 63 -46 165
-74 247 -68 132 10 236 82 294 206 30 63 32 74 32 177 0 100 -3 116 -28 170
-54 115 -127 166 -247 173 -92 5 -161 -13 -247 -65 -30 -18 -57 -33 -59 -33
-2 0 -5 118 -6 262 -2 164 -7 262 -13 264 -5 1 -34 -9 -62 -22z m437 -464 c51
-26 95 -77 126 -145 23 -50 28 -77 32 -165 5 -122 -5 -169 -51 -236 -80 -119
-269 -130 -392 -22 -74 65 -75 70 -75 300 l0 204 54 32 c97 59 226 72 306 32z"/>
<path d="M7021 2444 c-30 -13 -57 -26 -59 -29 -2 -2 9 -15 24 -29 l29 -24 3
-429 c4 -492 1 -545 -34 -580 -13 -13 -24 -26 -24 -28 0 -3 43 -5 95 -5 52 0
95 2 95 5 0 3 -12 17 -27 30 l-28 23 -3 546 c-2 300 -6 546 -10 545 -4 0 -32
-11 -61 -25z"/>
<path d="M7347 2445 c-63 -30 -64 -31 -36 -54 l24 -19 3 -469 c2 -257 0 -483
-3 -501 -3 -18 -15 -41 -26 -50 -10 -9 -19 -20 -19 -24 0 -5 41 -8 90 -8 55 0
90 4 90 10 0 6 -6 13 -14 16 -8 3 -18 13 -23 22 -4 9 -10 260 -13 556 -3 347
-9 540 -15 542 -5 1 -32 -8 -58 -21z"/>
<path d="M628 2118 c-21 -5 -57 -27 -80 -47 l-43 -38 -81 5 c-94 5 -145 -12
-212 -73 -58 -52 -84 -110 -83 -190 0 -76 23 -127 76 -174 35 -31 36 -33 19
-46 -11 -8 -22 -15 -27 -15 -14 0 -47 -64 -47 -91 0 -31 32 -67 71 -81 16 -5
29 -13 28 -16 0 -4 -28 -27 -62 -52 -34 -25 -74 -64 -91 -87 -63 -90 -37 -203
58 -252 57 -30 169 -39 247 -21 134 31 293 140 341 234 25 48 29 122 9 159
-27 51 -78 63 -375 86 -130 10 -168 26 -174 73 -2 19 5 31 27 47 30 21 31 21
87 5 208 -60 400 125 343 329 -12 44 -68 111 -112 134 l-30 15 25 24 c21 22
28 24 53 14 51 -19 120 -17 144 4 55 50 -9 81 -111 54z m-169 -118 c47 -23 87
-70 114 -130 29 -62 29 -171 2 -225 -55 -109 -197 -123 -291 -29 -114 114
-110 329 7 387 46 23 121 21 168 -3z m-14 -660 c180 -12 221 -20 254 -51 20
-19 23 -29 19 -76 -6 -64 -37 -108 -119 -164 -164 -114 -393 -101 -450 24 -35
79 -18 139 63 220 32 31 62 57 66 57 4 0 79 -5 167 -10z"/>
<path d="M883 2015 c-29 -13 -53 -27 -53 -30 0 -4 10 -15 23 -25 22 -18 22
-23 25 -272 3 -276 0 -311 -29 -336 -10 -9 -19 -20 -19 -24 0 -5 41 -8 90 -8
50 0 90 3 90 6 0 3 -10 14 -22 24 -22 18 -23 24 -26 245 -3 226 -3 228 22 279
14 29 37 63 51 76 l25 24 91 -19 c89 -18 91 -18 117 2 61 45 32 83 -64 83 -86
0 -156 -37 -206 -109 l-37 -53 -3 78 c-2 42 -7 79 -13 81 -5 1 -34 -8 -62 -22z"/>
<path d="M1517 2016 c-60 -25 -140 -84 -157 -117 -16 -30 -1 -23 47 22 64 58
123 82 205 81 116 0 194 -66 201 -168 l2 -38 -137 -37 c-303 -81 -378 -132
-378 -262 0 -66 16 -103 59 -140 67 -56 182 -62 265 -13 59 35 129 114 165
189 l30 62 0 -126 c1 -83 5 -129 13 -137 12 -12 118 -17 118 -6 0 3 -10 14
-22 24 -22 18 -23 25 -29 267 -6 256 -11 289 -53 346 -56 76 -211 101 -329 53z
m283 -406 c-37 -110 -91 -177 -175 -216 -144 -68 -284 32 -245 175 21 79 88
117 315 177 l120 31 3 -52 c2 -34 -4 -75 -18 -115z"/>
<path d="M2312 2020 c-108 -39 -204 -133 -239 -235 -26 -72 -23 -194 6 -267
28 -73 94 -141 169 -176 48 -23 71 -27 142 -27 76 0 93 4 151 32 64 32 169
121 169 143 0 7 -21 -7 -47 -31 -90 -79 -194 -105 -306 -76 -147 39 -229 154
-229 322 0 146 67 255 186 300 l48 19 57 -33 c153 -88 203 -97 238 -45 14 23
14 26 -2 44 -45 50 -241 67 -343 30z"/>
<path d="M3045 2022 c-155 -54 -245 -187 -245 -361 0 -144 68 -259 188 -318
50 -24 69 -28 147 -28 79 0 97 4 149 29 62 31 186 139 173 152 -4 4 -26 -11
-50 -34 -64 -62 -126 -87 -222 -87 -62 0 -91 5 -130 23 -66 30 -129 93 -155
155 -23 52 -37 176 -26 221 l6 26 286 0 286 0 -7 37 c-16 88 -78 159 -164 188
-59 20 -173 19 -236 -3z m192 -30 c61 -32 133 -124 133 -172 0 -11 -472 -15
-483 -4 -17 17 53 130 99 160 72 48 175 54 251 16z"/>
<path d="M4169 2031 c-60 -19 -153 -77 -186 -115 -165 -191 -117 -473 97 -575
47 -22 69 -26 145 -26 82 0 96 3 151 32 63 33 183 137 171 149 -4 4 -27 -12
-53 -35 -156 -145 -394 -111 -493 69 -32 59 -36 73 -39 162 -4 88 -2 101 22
155 15 32 41 73 59 92 30 32 118 81 145 81 6 0 52 -23 101 -50 108 -62 145
-70 184 -40 71 56 -4 102 -173 107 -58 1 -117 -1 -131 -6z"/>
<path d="M4857 2021 c-54 -22 -141 -85 -163 -118 -22 -34 -6 -28 43 18 63 58
123 82 204 81 76 0 135 -25 168 -70 24 -35 47 -120 35 -132 -5 -5 -72 -25
-149 -45 -290 -76 -365 -131 -365 -265 0 -109 80 -180 203 -180 105 0 222 91
286 223 l30 62 1 -126 c0 -83 4 -129 12 -137 15 -15 118 -16 118 -2 0 6 -6 13
-14 16 -29 11 -35 62 -38 294 -3 230 -4 237 -29 285 -18 35 -39 59 -74 80 -43
26 -59 30 -134 33 -66 1 -97 -2 -134 -17z m290 -320 c-6 -98 -46 -187 -112
-254 -119 -118 -295 -95 -326 43 -20 90 32 165 143 205 40 14 268 79 297 84 2
1 1 -35 -2 -78z"/>
<path d="M6428 2021 c-57 -23 -140 -82 -162 -116 -24 -36 -9 -31 41 16 63 58
123 82 203 81 81 0 129 -19 163 -64 30 -39 56 -123 42 -137 -6 -5 -80 -28
-165 -51 -257 -68 -339 -123 -348 -234 -6 -70 1 -96 35 -137 60 -71 177 -90
271 -43 65 32 142 116 181 197 l30 62 1 -126 c0 -83 4 -129 12 -137 14 -14
118 -16 118 -2 0 6 -4 10 -10 10 -5 0 -16 13 -25 30 -12 23 -15 71 -15 242 -1
230 -8 283 -46 341 -53 81 -210 113 -326 68z m272 -415 c-48 -142 -154 -236
-267 -236 -105 0 -181 97 -153 199 20 76 96 119 305 174 l130 34 3 -55 c2 -35
-4 -75 -18 -116z"/>
<path d="M7853 2021 c-171 -59 -269 -228 -242 -419 17 -118 81 -207 188 -260
49 -23 68 -27 146 -27 80 0 97 3 148 30 63 31 187 138 175 150 -4 5 -28 -11
-54 -34 -69 -64 -124 -86 -219 -86 -133 0 -230 60 -284 175 -22 47 -26 69 -26
150 l0 95 288 3 c228 2 287 5 287 15 0 8 -7 35 -17 62 -21 63 -85 127 -148
148 -64 22 -176 21 -242 -2z m193 -29 c21 -11 51 -33 66 -49 29 -31 70 -112
62 -125 -8 -12 -484 -10 -484 2 0 6 11 33 25 59 29 58 93 115 143 130 53 15
142 7 188 -17z"/>
<path d="M8422 2013 l-53 -25 25 -23 c34 -32 38 -73 34 -349 l-3 -238 -27 -23
c-16 -13 -28 -27 -28 -30 0 -3 43 -5 95 -5 52 0 95 2 95 5 0 2 -11 15 -24 28
-32 32 -39 90 -34 302 l3 170 33 61 c46 85 62 92 162 69 91 -21 122 -14 142
31 19 42 -9 56 -104 52 -66 -3 -82 -7 -120 -33 -24 -17 -59 -54 -78 -84 l-35
-53 -3 86 c-2 60 -6 86 -15 85 -7 0 -36 -12 -65 -26z"/>
<path d="M9108 2024 c-141 -43 -248 -194 -248 -348 0 -150 75 -273 202 -332
56 -26 73 -29 163 -29 89 1 106 4 159 29 122 59 193 164 203 301 18 229 -135
396 -359 394 -40 0 -94 -7 -120 -15z m179 -25 c207 -78 306 -415 168 -576 -50
-59 -106 -83 -191 -83 -88 0 -152 29 -216 97 -59 64 -86 117 -105 207 -53 253
124 437 344 355z"/>
<path d="M2800 535 l0 -287 153 4 c167 5 212 16 277 68 22 18 51 55 67 88 23
48 28 69 27 132 -1 116 -51 197 -152 247 -54 26 -66 28 -214 32 l-158 3 0
-287z m350 221 c111 -58 160 -172 126 -290 -19 -65 -62 -118 -120 -149 -35
-18 -63 -22 -178 -25 l-138 -4 0 247 0 247 138 -4 c109 -3 144 -7 172 -22z"/>
<path d="M3680 535 l0 -285 195 0 c188 0 195 1 195 20 0 19 -7 20 -175 20
l-175 0 0 115 0 115 150 0 c143 0 150 1 150 20 0 19 -7 20 -150 20 l-150 0 0
110 0 110 170 0 c163 0 170 1 170 20 0 19 -7 20 -190 20 l-190 0 0 -285z"/>
<path d="M4471 798 c-61 -30 -83 -69 -78 -137 3 -45 9 -59 35 -82 17 -15 57
-35 89 -45 155 -45 184 -57 203 -81 35 -45 20 -116 -30 -143 -65 -35 -183 -27
-257 16 -50 29 -53 29 -53 4 0 -14 16 -28 53 -47 45 -24 63 -28 142 -28 144 0
205 44 205 149 0 43 -4 53 -36 82 -21 20 -56 40 -87 48 -29 8 -79 22 -111 31
-101 28 -145 100 -100 163 40 58 168 75 253 33 34 -16 47 -18 52 -9 34 55
-188 92 -280 46z"/>
<path d="M5130 535 c0 -278 0 -285 20 -285 20 0 20 7 20 285 0 278 0 285 -20
285 -20 0 -20 -7 -20 -285z"/>
<path d="M5706 800 c-147 -58 -220 -241 -152 -385 28 -62 101 -128 163 -149
88 -30 215 -14 286 36 26 19 27 21 27 124 0 97 -1 104 -20 104 -18 0 -20 -8
-22 -97 l-3 -97 -35 -20 c-47 -28 -198 -30 -246 -4 -41 23 -90 72 -111 111
-24 48 -29 148 -9 201 21 54 76 112 130 137 78 35 214 21 268 -28 17 -15 20
-15 33 -2 14 13 12 18 -15 38 -73 53 -201 67 -294 31z"/>
<path d="M6420 536 c0 -278 1 -286 20 -286 19 0 20 8 22 242 l3 243 188 -240
c111 -141 196 -241 208 -243 18 -3 19 6 19 282 0 278 -1 286 -20 286 -19 0
-20 -8 -22 -245 l-3 -246 -190 243 c-105 134 -198 244 -208 246 -16 3 -17 -18
-17 -282z"/>
</g>
</svg>
